<?xml version="1.0" encoding="UTF-8" standalone="no"?><!DOCTYPE svg PUBLIC "-//W3C//DTD SVG 1.1//EN" "http://www.w3.org/Graphics/SVG/1.1/DTD/svg11.dtd"><svg width="100%" height="100%" viewBox="0 0 1000 1000" version="1.1" xmlns="http://www.w3.org/2000/svg" xmlns:xlink="http://www.w3.org/1999/xlink" xml:space="preserve" xmlns:serif="http://www.serif.com/" style="fill-rule:evenodd;clip-rule:evenodd;stroke-linecap:round;stroke-linejoin:round;stroke-miterlimit:1.5;"><circle cx="500" cy="500" r="158.109" style="stroke:#fff;stroke-width:77.71px;"/><path d="M488.612,433.863c2.475,0 -48.898,12.714 -59.088,40.615c-10.473,28.675 20.186,72.551 19.596,72.078c-14.492,-11.599 -23.78,-29.434 -23.78,-49.421c0,-34.921 28.351,-63.272 63.272,-63.272Z" style="stroke:#fff;stroke-width:25.45px;"/><path d="M500,220.141l-0,-137.879" style="fill:none;stroke:#fff;stroke-width:77.71px;"/><path d="M784.208,500l137.878,0" style="fill:none;stroke:#fff;stroke-width:77.71px;"/><path d="M90.108,500l137.878,0" style="fill:none;stroke:#fff;stroke-width:77.71px;"/><path d="M500,774.64l0,137.878" style="fill:none;stroke:#fff;stroke-width:77.71px;"/><path d="M715.269,300.466l68.939,-119.406" style="fill:none;stroke:#fff;stroke-width:77.71px;"/><path d="M262.456,300.466l-68.939,-119.406" style="fill:none;stroke:#fff;stroke-width:77.71px;"/><path d="M784.208,834.343l-68.939,-119.406" style="fill:none;stroke:#fff;stroke-width:77.71px;"/><path d="M193.517,834.343l68.939,-119.406" style="fill:none;stroke:#fff;stroke-width:77.71px;"/></svg>